Stretch vv(155.2-150.4)-(110.6-100.0)-0.0-0.0-(0.0-0.0).ufo
<glyph name="A" format="1">
  <advance width="468"/>
  <unicode hex="0041"/>
  <outline>
    <contour>
      <point x="140" y="0" type="line"/>
      <point x="235" y="419" type="line"/>
      <point x="330" y="0" type="line"/>
      <point x="442" y="0" type="line"/>
      <point x="282" y="700" type="line"/>
      <point x="188" y="700" type="line"/>
      <point x="28" y="0" type="line"/>
    </contour>
    <contour>
      <point x="383" y="93" type="line"/>
      <point x="383" y="195" type="line"/>
      <point x="88" y="195" type="line"/>
      <point x="88" y="93" type="line"/>
    </contour>
  </outline>
</glyph>
<glyph name="B" format="1">
  <advance width="519"/>
  <unicode hex="0042"/>
  <outline>
    <contour>
      <point x="170" y="313" type="line"/>
      <point x="244" y="313" type="line" smooth="yes"/>
      <point x="312" y="313"/>
      <point x="357" y="271"/>
      <point x="357" y="208" type="curve" smooth="yes"/>
      <point x="357" y="145"/>
      <point x="312" y="103"/>
      <point x="244" y="103" type="curve" smooth="yes"/>
      <point x="170" y="103" type="line"/>
    </contour>
    <contour>
      <point x="170" y="597" type="line"/>
      <point x="244" y="597" type="line" smooth="yes"/>
      <point x="312" y="597"/>
      <point x="357" y="558"/>
      <point x="357" y="499" type="curve" smooth="yes"/>
      <point x="357" y="439"/>
      <point x="312" y="399"/>
      <point x="244" y="399" type="curve" smooth="yes"/>
      <point x="170" y="399" type="line"/>
    </contour>
    <contour>
      <point x="244" y="313" type="line"/>
      <point x="376" y="313"/>
      <point x="464" y="388"/>
      <point x="464" y="505" type="curve" smooth="yes"/>
      <point x="464" y="621"/>
      <point x="378" y="700"/>
      <point x="249" y="700" type="curve" smooth="yes"/>
      <point x="59" y="700" type="line"/>
      <point x="59" y="313" type="line"/>
    </contour>
    <contour>
      <point x="249" y="0" type="line"/>
      <point x="376" y="0"/>
      <point x="464" y="83"/>
      <point x="464" y="203" type="curve" smooth="yes"/>
      <point x="464" y="323"/>
      <point x="378" y="399"/>
      <point x="244" y="399" type="curve" smooth="yes"/>
      <point x="59" y="399" type="line"/>
      <point x="59" y="0" type="line"/>
    </contour>
  </outline>
</glyph>
<glyph name="C" format="1">
  <advance width="497"/>
  <unicode hex="0043"/>
  <outline>
    <contour>
      <point x="454" y="174" type="curve" smooth="yes"/>
      <point x="454" y="218" type="line"/>
      <point x="344" y="218" type="line"/>
      <point x="344" y="174" type="line" smooth="yes"/>
      <point x="344" y="121"/>
      <point x="316" y="94"/>
      <point x="262" y="94" type="curve" smooth="yes"/>
      <point x="208" y="94"/>
      <point x="180" y="121"/>
      <point x="180" y="174" type="curve" smooth="yes"/>
      <point x="180" y="526" type="line" smooth="yes"/>
      <point x="180" y="578"/>
      <point x="209" y="607"/>
      <point x="262" y="607" type="curve" smooth="yes"/>
      <point x="315" y="607"/>
      <point x="344" y="578"/>
      <point x="344" y="526" type="curve" smooth="yes"/>
      <point x="344" y="482" type="line"/>
      <point x="454" y="482" type="line"/>
      <point x="454" y="526" type="line" smooth="yes"/>
      <point x="454" y="637"/>
      <point x="378" y="708"/>
      <point x="262" y="708" type="curve" smooth="yes"/>
      <point x="147" y="708"/>
      <point x="70" y="637"/>
      <point x="70" y="526" type="curve" smooth="yes"/>
      <point x="70" y="174" type="line" smooth="yes"/>
      <point x="70" y="63"/>
      <point x="147" y="-9"/>
      <point x="262" y="-9" type="curve" smooth="yes"/>
      <point x="378" y="-9"/>
      <point x="454" y="63"/>
    </contour>
  </outline>
</glyph>
<glyph name="D" format="1">
  <advance width="532"/>
  <unicode hex="0044"/>
  <outline>
    <contour>
      <point x="270" y="0" type="line"/>
      <point x="387" y="0"/>
      <point x="463" y="73"/>
      <point x="463" y="184" type="curve" smooth="yes"/>
      <point x="463" y="516" type="line" smooth="yes"/>
      <point x="463" y="627"/>
      <point x="387" y="700"/>
      <point x="270" y="700" type="curve" smooth="yes"/>
      <point x="78" y="700" type="line"/>
      <point x="78" y="0" type="line"/>
    </contour>
    <contour>
      <point x="188" y="597" type="line"/>
      <point x="270" y="597" type="line" smooth="yes"/>
      <point x="324" y="597"/>
      <point x="353" y="569"/>
      <point x="353" y="516" type="curve" smooth="yes"/>
      <point x="353" y="184" type="line" smooth="yes"/>
      <point x="353" y="132"/>
      <point x="324" y="104"/>
      <point x="270" y="104" type="curve" smooth="yes"/>
      <point x="188" y="104" type="line"/>
    </contour>
  </outline>
</glyph>
<glyph name="E" format="1">
  <advance width="496"/>
  <unicode hex="0045"/>
  <outline>
    <contour>
      <point x="443" y="0" type="line"/>
      <point x="443" y="104" type="line"/>
      <point x="171" y="104" type="line"/>
      <point x="171" y="597" type="line"/>
      <point x="443" y="597" type="line"/>
      <point x="443" y="700" type="line"/>
      <point x="60" y="700" type="line"/>
      <point x="60" y="0" type="line"/>
    </contour>
    <contour>
      <point x="347" y="299" type="line"/>
      <point x="347" y="402" type="line"/>
      <point x="71" y="402" type="line"/>
      <point x="71" y="299" type="line"/>
    </contour>
  </outline>
</glyph>
<glyph name="F" format="1">
  <advance width="494"/>
  <unicode hex="0046"/>
  <outline>
    <contour>
      <point x="189" y="0" type="line"/>
      <point x="189" y="597" type="line"/>
      <point x="463" y="597" type="line"/>
      <point x="463" y="700" type="line"/>
      <point x="79" y="700" type="line"/>
      <point x="79" y="0" type="line"/>
    </contour>
    <contour>
      <point x="366" y="299" type="line"/>
      <point x="366" y="402" type="line"/>
      <point x="89" y="402" type="line"/>
      <point x="89" y="299" type="line"/>
    </contour>
  </outline>
</glyph>
<glyph name="G" format="1">
  <advance width="513"/>
  <unicode hex="0047"/>
  <outline>
    <contour>
      <point x="454" y="174" type="curve" smooth="yes"/>
      <point x="454" y="402" type="line"/>
      <point x="267" y="402" type="line"/>
      <point x="267" y="299" type="line"/>
      <point x="344" y="299" type="line"/>
      <point x="344" y="174" type="line" smooth="yes"/>
      <point x="344" y="121"/>
      <point x="317" y="94"/>
      <point x="262" y="94" type="curve" smooth="yes"/>
      <point x="207" y="94"/>
      <point x="180" y="121"/>
      <point x="180" y="174" type="curve" smooth="yes"/>
      <point x="180" y="526" type="line" smooth="yes"/>
      <point x="180" y="579"/>
      <point x="208" y="607"/>
      <point x="262" y="607" type="curve" smooth="yes"/>
      <point x="316" y="607"/>
      <point x="344" y="579"/>
      <point x="344" y="526" type="curve"/>
      <point x="454" y="526" type="line"/>
      <point x="454" y="636"/>
      <point x="378" y="709"/>
      <point x="262" y="709" type="curve" smooth="yes"/>
      <point x="147" y="709"/>
      <point x="70" y="636"/>
      <point x="70" y="526" type="curve" smooth="yes"/>
      <point x="70" y="174" type="line" smooth="yes"/>
      <point x="70" y="64"/>
      <point x="147" y="-9"/>
      <point x="262" y="-9" type="curve" smooth="yes"/>
      <point x="378" y="-9"/>
      <point x="454" y="64"/>
    </contour>
  </outline>
</glyph>
<glyph name="H" format="1">
  <advance width="543"/>
  <unicode hex="0048"/>
  <outline>
    <contour>
      <point x="464" y="0" type="line"/>
      <point x="464" y="700" type="line"/>
      <point x="354" y="700" type="line"/>
      <point x="354" y="0" type="line"/>
    </contour>
    <contour>
      <point x="189" y="0" type="line"/>
      <point x="189" y="700" type="line"/>
      <point x="79" y="700" type="line"/>
      <point x="79" y="0" type="line"/>
    </contour>
    <contour>
      <point x="448" y="299" type="line"/>
      <point x="448" y="402" type="line"/>
      <point x="95" y="402" type="line"/>
      <point x="95" y="299" type="line"/>
    </contour>
  </outline>
</glyph>
<glyph name="I" format="1">
  <advance width="231"/>
  <unicode hex="0049"/>
  <outline>
    <contour>
      <point x="171" y="0" type="line"/>
      <point x="171" y="700" type="line"/>
      <point x="60" y="700" type="line"/>
      <point x="60" y="0" type="line"/>
    </contour>
  </outline>
</glyph>
<glyph name="J" format="1">
  <advance width="492"/>
  <unicode hex="004A"/>
  <outline>
    <contour>
      <point x="417" y="174" type="curve" smooth="yes"/>
      <point x="417" y="699" type="line"/>
      <point x="307" y="699" type="line"/>
      <point x="307" y="174" type="line"/>
      <point x="307" y="121"/>
      <point x="280" y="94"/>
      <point x="228" y="94" type="curve" smooth="yes"/>
      <point x="176" y="94"/>
      <point x="149" y="121"/>
      <point x="149" y="174" type="curve" smooth="yes"/>
      <point x="149" y="255" type="line"/>
      <point x="38" y="255" type="line"/>
      <point x="38" y="174" type="line" smooth="yes"/>
      <point x="38" y="62"/>
      <point x="113" y="-10"/>
      <point x="228" y="-10" type="curve" smooth="yes"/>
      <point x="342" y="-10"/>
      <point x="417" y="62"/>
    </contour>
  </outline>
</glyph>
<glyph name="K" format="1">
  <advance width="506"/>
  <unicode hex="004B"/>
  <outline>
    <contour>
      <point x="438" y="0" type="line"/>
      <point x="207" y="350" type="line"/>
      <point x="438" y="700" type="line"/>
      <point x="304" y="700" type="line"/>
      <point x="77" y="350" type="line"/>
      <point x="304" y="0" type="line"/>
    </contour>
    <contour>
      <point x="148" y="0" type="line"/>
      <point x="148" y="700" type="line"/>
      <point x="37" y="700" type="line"/>
      <point x="37" y="0" type="line"/>
    </contour>
  </outline>
</glyph>
<glyph name="L" format="1">
  <advance width="484"/>
  <unicode hex="004C"/>
  <outline>
    <contour>
      <point x="452" y="0" type="line"/>
      <point x="452" y="104" type="line"/>
      <point x="188" y="104" type="line"/>
      <point x="188" y="700" type="line"/>
      <point x="79" y="700" type="line"/>
      <point x="79" y="0" type="line"/>
    </contour>
  </outline>
</glyph>
<glyph name="M" format="1">
  <advance width="647"/>
  <unicode hex="004D"/>
  <outline>
    <contour>
      <point x="222" y="0" type="line"/>
      <point x="224" y="429" type="line"/>
      <point x="323" y="227" type="line"/>
      <point x="423" y="428" type="line"/>
      <point x="423" y="0" type="line"/>
      <point x="532" y="0" type="line"/>
      <point x="532" y="700" type="line"/>
      <point x="439" y="700" type="line"/>
      <point x="323" y="469" type="line"/>
      <point x="208" y="700" type="line"/>
      <point x="114" y="700" type="line"/>
      <point x="114" y="0" type="line"/>
    </contour>
  </outline>
</glyph>
<glyph name="N" format="1">
  <advance width="543"/>
  <unicode hex="004E"/>
  <outline>
    <contour>
      <point x="189" y="0" type="line"/>
      <point x="189" y="401" type="line"/>
      <point x="368" y="0" type="line"/>
      <point x="464" y="0" type="line"/>
      <point x="464" y="700" type="line"/>
      <point x="354" y="700" type="line"/>
      <point x="354" y="299" type="line"/>
      <point x="175" y="700" type="line"/>
      <point x="79" y="700" type="line"/>
      <point x="79" y="0" type="line"/>
    </contour>
  </outline>
</glyph>
<glyph name="O" format="1">
  <advance width="522"/>
  <unicode hex="004F"/>
  <outline>
    <contour>
      <point x="453" y="174" type="curve" smooth="yes"/>
      <point x="453" y="526" type="line" smooth="yes"/>
      <point x="453" y="628"/>
      <point x="368" y="709"/>
      <point x="261" y="709" type="curve" smooth="yes"/>
      <point x="154" y="709"/>
      <point x="69" y="628"/>
      <point x="69" y="526" type="curve" smooth="yes"/>
      <point x="69" y="174" type="line" smooth="yes"/>
      <point x="69" y="72"/>
      <point x="154" y="-9"/>
      <point x="261" y="-9" type="curve" smooth="yes"/>
      <point x="368" y="-9"/>
      <point x="453" y="72"/>
    </contour>
    <contour>
      <point x="179" y="174" type="curve" smooth="yes"/>
      <point x="179" y="526" type="line" smooth="yes"/>
      <point x="179" y="571"/>
      <point x="215" y="606"/>
      <point x="261" y="606" type="curve" smooth="yes"/>
      <point x="307" y="606"/>
      <point x="343" y="571"/>
      <point x="343" y="526" type="curve" smooth="yes"/>
      <point x="343" y="174" type="line" smooth="yes"/>
      <point x="343" y="129"/>
      <point x="307" y="94"/>
      <point x="261" y="94" type="curve" smooth="yes"/>
      <point x="215" y="94"/>
      <point x="179" y="129"/>
    </contour>
  </outline>
</glyph>
<glyph name="P" format="1">
  <advance width="513"/>
  <unicode hex="0050"/>
  <outline>
    <contour>
      <point x="189" y="0" type="line"/>
      <point x="189" y="597" type="line"/>
      <point x="258" y="597" type="line" smooth="yes"/>
      <point x="319" y="597"/>
      <point x="361" y="558"/>
      <point x="361" y="499" type="curve" smooth="yes"/>
      <point x="361" y="439"/>
      <point x="319" y="399"/>
      <point x="258" y="399" type="curve" smooth="yes"/>
      <point x="96" y="399" type="line"/>
      <point x="96" y="296" type="line"/>
      <point x="259" y="296" type="line" smooth="yes"/>
      <point x="386" y="296"/>
      <point x="470" y="377"/>
      <point x="470" y="498" type="curve" smooth="yes"/>
      <point x="470" y="619"/>
      <point x="385" y="700"/>
      <point x="258" y="700" type="curve" smooth="yes"/>
      <point x="79" y="700" type="line"/>
      <point x="79" y="0" type="line"/>
    </contour>
  </outline>
</glyph>
<glyph name="R" format="1">
  <advance width="515"/>
  <unicode hex="0052"/>
  <outline>
    <contour>
      <point x="189" y="1" type="line"/>
      <point x="189" y="607" type="line"/>
      <point x="258" y="607" type="line" smooth="yes"/>
      <point x="324" y="607"/>
      <point x="361" y="571"/>
      <point x="361" y="503" type="curve" smooth="yes"/>
      <point x="361" y="434"/>
      <point x="324" y="397"/>
      <point x="258" y="397" type="curve" smooth="yes"/>
      <point x="96" y="397" type="line"/>
      <point x="96" y="293" type="line"/>
      <point x="259" y="294" type="line" smooth="yes"/>
      <point x="387" y="296"/>
      <point x="470" y="377"/>
      <point x="470" y="502" type="curve" smooth="yes"/>
      <point x="470" y="628"/>
      <point x="387" y="710"/>
      <point x="258" y="710" type="curve" smooth="yes"/>
      <point x="80" y="710" type="line"/>
      <point x="80" y="1" type="line"/>
    </contour>
    <contour>
      <point x="472" y="1" type="line"/>
      <point x="310" y="388" type="line"/>
      <point x="209" y="349" type="line"/>
      <point x="354" y="1" type="line"/>
    </contour>
  </outline>
</glyph>
<glyph name="S" format="1">
  <advance width="485"/>
  <unicode hex="0053"/>
  <outline>
    <contour>
      <point x="435" y="173" type="curve" smooth="yes"/>
      <point x="435" y="288"/>
      <point x="348" y="347"/>
      <point x="272" y="395" type="curve" smooth="yes"/>
      <point x="183" y="451"/>
      <point x="160" y="478"/>
      <point x="160" y="528" type="curve" smooth="yes"/>
      <point x="160" y="579"/>
      <point x="188" y="607"/>
      <point x="239" y="607" type="curve" smooth="yes"/>
      <point x="291" y="607"/>
      <point x="319" y="579"/>
      <point x="319" y="526" type="curve" smooth="yes"/>
      <point x="319" y="460" type="line"/>
      <point x="428" y="460" type="line"/>
      <point x="428" y="526" type="line" smooth="yes"/>
      <point x="428" y="637"/>
      <point x="354" y="709"/>
      <point x="239" y="709" type="curve" smooth="yes"/>
      <point x="126" y="709"/>
      <point x="50" y="637"/>
      <point x="50" y="528" type="curve" smooth="yes"/>
      <point x="50" y="413"/>
      <point x="138" y="354"/>
      <point x="210" y="308" type="curve" smooth="yes"/>
      <point x="302" y="250"/>
      <point x="324" y="223"/>
      <point x="324" y="172" type="curve" smooth="yes"/>
      <point x="324" y="123"/>
      <point x="295" y="94"/>
      <point x="243" y="94" type="curve" smooth="yes"/>
      <point x="190" y="94"/>
      <point x="165" y="119"/>
      <point x="165" y="174" type="curve" smooth="yes"/>
      <point x="165" y="240" type="line"/>
      <point x="56" y="240" type="line"/>
      <point x="56" y="174" type="line" smooth="yes"/>
      <point x="56" y="61"/>
      <point x="128" y="-9"/>
      <point x="244" y="-9" type="curve" smooth="yes"/>
      <point x="358" y="-9"/>
      <point x="435" y="65"/>
    </contour>
  </outline>
</glyph>
<glyph name="T" format="1">
  <advance width="447"/>
  <unicode hex="0054"/>
  <outline>
    <contour>
      <point x="275" y="0" type="line"/>
      <point x="275" y="690" type="line"/>
      <point x="165" y="690" type="line"/>
      <point x="165" y="0" type="line"/>
    </contour>
    <contour>
      <point x="416" y="597" type="line"/>
      <point x="416" y="700" type="line"/>
      <point x="31" y="700" type="line"/>
      <point x="31" y="597" type="line"/>
    </contour>
  </outline>
</glyph>
<glyph name="U" format="1">
  <advance width="535"/>
  <unicode hex="0055"/>
  <outline>
    <contour>
      <point x="460" y="174" type="curve" smooth="yes"/>
      <point x="460" y="699" type="line"/>
      <point x="349" y="699" type="line"/>
      <point x="349" y="174" type="line" smooth="yes"/>
      <point x="349" y="121"/>
      <point x="321" y="94"/>
      <point x="267" y="94" type="curve" smooth="yes"/>
      <point x="213" y="94"/>
      <point x="185" y="121"/>
      <point x="185" y="174" type="curve" smooth="yes"/>
      <point x="185" y="699" type="line"/>
      <point x="75" y="699" type="line"/>
      <point x="75" y="174" type="line" smooth="yes"/>
      <point x="75" y="63"/>
      <point x="152" y="-10"/>
      <point x="267" y="-10" type="curve" smooth="yes"/>
      <point x="383" y="-10"/>
      <point x="460" y="63"/>
    </contour>
  </outline>
</glyph>
<glyph name="V" format="1">
  <advance width="497"/>
  <unicode hex="0056"/>
  <outline>
    <contour>
      <point x="294" y="0" type="line"/>
      <point x="471" y="700" type="line"/>
      <point x="359" y="700" type="line"/>
      <point x="249" y="238" type="line"/>
      <point x="138" y="700" type="line"/>
      <point x="26" y="700" type="line"/>
      <point x="203" y="0" type="line"/>
    </contour>
  </outline>
</glyph>
<glyph name="W" format="1">
  <advance width="670"/>
  <unicode hex="0057"/>
  <outline>
    <contour>
      <point x="268" y="0" type="line"/>
      <point x="335" y="364" type="line"/>
      <point x="401" y="0" type="line"/>
      <point x="497" y="0" type="line"/>
      <point x="627" y="700" type="line"/>
      <point x="516" y="700" type="line"/>
      <point x="449" y="336" type="line"/>
      <point x="383" y="700" type="line"/>
      <point x="287" y="700" type="line"/>
      <point x="220" y="336" type="line"/>
      <point x="154" y="700" type="line"/>
      <point x="43" y="700" type="line"/>
      <point x="173" y="0" type="line"/>
    </contour>
  </outline>
</glyph>
<glyph name="X" format="1">
  <advance width="458"/>
  <unicode hex="0058"/>
  <outline>
    <contour>
      <point x="330" y="700" type="line"/>
      <point x="448" y="700" type="line"/>
      <point x="128" y="0" type="line"/>
      <point x="9" y="0" type="line"/>
    </contour>
    <contour>
      <point x="9" y="700" type="line"/>
      <point x="128" y="700" type="line"/>
      <point x="448" y="0" type="line"/>
      <point x="330" y="0" type="line"/>
    </contour>
  </outline>
</glyph>
<glyph name="Y" format="1">
  <advance width="453"/>
  <unicode hex="0059"/>
  <outline>
    <contour>
      <point x="448" y="700" type="line"/>
      <point x="328" y="700" type="line"/>
      <point x="227" y="482" type="line"/>
      <point x="127" y="700" type="line"/>
      <point x="5" y="700" type="line"/>
      <point x="227" y="226" type="line"/>
    </contour>
    <contour>
      <point x="282" y="0" type="line"/>
      <point x="282" y="392" type="line"/>
      <point x="172" y="392" type="line"/>
      <point x="172" y="0" type="line"/>
    </contour>
  </outline>
</glyph>
<glyph name="Z" format="1">
  <advance width="464"/>
  <unicode hex="005A"/>
  <outline>
    <contour>
      <point x="414" y="0" type="line"/>
      <point x="414" y="104" type="line"/>
      <point x="199" y="104" type="line"/>
      <point x="431" y="700" type="line"/>
      <point x="50" y="700" type="line"/>
      <point x="50" y="597" type="line"/>
      <point x="265" y="597" type="line"/>
      <point x="33" y="0" type="line"/>
    </contour>
  </outline>
</glyph>
